<?xml version="1.0" encoding="UTF-8" standalone="no"?>
<!-- Created with Inkscape (http://www.inkscape.org/) -->

<svg
   xmlns:dc="http://purl.org/dc/elements/1.1/"
   xmlns:cc="http://creativecommons.org/ns#"
   xmlns:rdf="http://www.w3.org/1999/02/22-rdf-syntax-ns#"
   xmlns:svg="http://www.w3.org/2000/svg"
   xmlns="http://www.w3.org/2000/svg"
   xmlns:sodipodi="http://sodipodi.sourceforge.net/DTD/sodipodi-0.dtd"
   xmlns:inkscape="http://www.inkscape.org/namespaces/inkscape"
   width="188.71568"
   height="158.2189"
   id="svg2"
   version="1.1"
   inkscape:version="0.48.2 r9819"
   sodipodi:docname="New document 1">
  <defs
     id="defs4">
    <clipPath
       id="clipPath3049"
       clipPathUnits="userSpaceOnUse">
      <path
         inkscape:connector-curvature="0"
         id="path3051"
         d="m 15,15 612,0 0,630 -612,0 0,-630 z" />
    </clipPath>
  </defs>
  <sodipodi:namedview
     id="base"
     pagecolor="#ffffff"
     bordercolor="#666666"
     borderopacity="1.0"
     inkscape:pageopacity="0.0"
     inkscape:pageshadow="2"
     inkscape:zoom="1.0074671"
     inkscape:cx="64.168125"
     inkscape:cy="69.806915"
     inkscape:document-units="px"
     inkscape:current-layer="layer1"
     showgrid="false"
     fit-margin-top="0"
     fit-margin-left="0"
     fit-margin-right="0"
     fit-margin-bottom="0"
     inkscape:window-width="475"
     inkscape:window-height="458"
     inkscape:window-x="66"
     inkscape:window-y="66"
     inkscape:window-maximized="0" />
  <metadata
     id="metadata7">
    <rdf:RDF>
      <cc:Work
         rdf:about="">
        <dc:format>image/svg+xml</dc:format>
        <dc:type
           rdf:resource="http://purl.org/dc/dcmitype/StillImage" />
        <dc:title></dc:title>
      </cc:Work>
    </rdf:RDF>
  </metadata>
  <g
     inkscape:label="Layer 1"
     inkscape:groupmode="layer"
     id="layer1"
     transform="translate(-310.83187,-427.94175)">
    <g
       id="g3066">
      <g
         style="fill:#000000"
         id="g3045"
         transform="matrix(1.838098,0,0,-1.838098,198.39156,1530.1326)">
        <g
           style="fill:#000000"
           id="g3047"
           clip-path="url(#clipPath3049)">
          <g
             style="fill:#000000"
             id="g3053"
             transform="translate(61.4331,529.7817)">
            <path
               inkscape:connector-curvature="0"
               d="m 0,0 c -0.244,0.107 -0.261,0.167 -0.261,0.578 0,0.761 0.069,1.37 0.087,1.613 0.017,0.167 0.052,0.243 0.139,0.243 0.105,0 0.123,-0.044 0.123,-0.167 0,-0.136 0,-0.35 0.052,-0.563 0.263,-1.126 1.417,-1.55 2.589,-1.55 1.679,0 2.5,1.05 2.5,2.022 0,1.048 -0.507,1.656 -2.01,2.738 L 2.431,5.475 C 0.577,6.799 0.157,7.742 0.157,8.776 c 0,1.628 1.4,2.738 3.622,2.738 0.681,0 1.189,-0.06 1.627,-0.153 0.331,-0.061 0.47,-0.076 0.611,-0.076 0.139,0 0.174,-0.029 0.174,-0.105 0,-0.078 -0.069,-0.578 -0.069,-1.614 C 6.122,9.323 6.087,9.218 6,9.218 5.894,9.218 5.876,9.293 5.859,9.416 5.842,9.598 5.737,10.009 5.631,10.175 5.527,10.343 5.055,10.983 3.445,10.983 2.239,10.983 1.294,10.328 1.294,9.218 1.294,8.35 1.784,7.833 3.428,6.662 L 3.918,6.327 C 5.982,4.914 6.471,3.969 6.471,2.753 6.471,2.131 6.191,0.974 4.985,0.229 4.234,-0.228 3.289,-0.41 2.344,-0.41 1.522,-0.41 0.717,-0.303 0,0"
               style="fill:#000000;fill-opacity:1;fill-rule:nonzero;stroke:none"
               id="path3055" />
          </g>
          <g
             style="fill:#000000"
             id="g3057"
             transform="translate(71.98,533.9956)">
            <path
               inkscape:connector-curvature="0"
               d="m 0,0 c 0,-1.46 0,-2.662 0.087,-3.3 0.052,-0.442 0.157,-0.776 0.682,-0.836 0.246,-0.031 0.63,-0.061 0.788,-0.061 0.105,0 0.139,-0.046 0.139,-0.093 0,-0.076 -0.087,-0.122 -0.28,-0.122 -0.961,0 -2.063,0.046 -2.151,0.046 -0.088,0 -1.188,-0.046 -1.713,-0.046 -0.193,0 -0.281,0.031 -0.281,0.122 0,0.047 0.035,0.093 0.14,0.093 0.158,0 0.367,0.03 0.525,0.061 0.351,0.06 0.437,0.394 0.507,0.836 0.087,0.638 0.087,1.84 0.087,3.3 l 0,2.676 c 0,2.373 0,2.799 -0.035,3.285 -0.035,0.517 -0.208,0.776 -0.594,0.852 -0.193,0.045 -0.421,0.062 -0.542,0.062 l -0.141,0.091 c 0,0.091 0.088,0.122 0.28,0.122 0.579,0 1.679,-0.046 1.767,-0.046 0.088,0 1.19,0.046 1.715,0.046 0.192,0 0.279,-0.031 0.279,-0.122 L 1.12,6.875 C 0.998,6.875 0.894,6.858 0.681,6.829 0.209,6.752 0.07,6.495 0.035,5.961 0,5.475 0,5.049 0,2.676 L 0,0 z"
               style="fill:#000000;fill-opacity:1;fill-rule:nonzero;stroke:none"
               id="path3059" />
          </g>
          <g
             style="fill:#000000"
             id="g3061"
             transform="translate(89.2075,531.5469)">
            <path
               inkscape:connector-curvature="0"
               d="M 0,0 C 0.069,-0.548 0.192,-1.398 0.946,-1.613 1.453,-1.75 1.906,-1.75 2.082,-1.75 l 0.139,-0.075 c 0,-0.092 -0.157,-0.137 -0.367,-0.137 -0.384,0 -2.274,0.045 -2.921,0.09 -0.402,0.031 -0.49,0.078 -0.49,0.154 l 0.122,0.105 c 0.089,0.017 0.107,0.276 0.072,0.55 l -0.841,7.845 -0.052,0 -4.286,-7.907 c -0.366,-0.669 -0.419,-0.806 -0.577,-0.806 -0.122,0 -0.209,0.152 -0.542,0.699 -0.454,0.744 -1.959,3.377 -2.046,3.528 -0.157,0.274 -2.116,3.924 -2.309,4.335 l -0.069,0 -0.701,-7.058 c -0.017,-0.242 -0.017,-0.518 -0.017,-0.774 0,-0.23 0.193,-0.426 0.454,-0.473 0.299,-0.058 0.56,-0.076 0.665,-0.076 l 0.142,-0.075 c 0,-0.106 -0.107,-0.137 -0.316,-0.137 -0.648,0 -1.487,0.045 -1.626,0.045 -0.158,0 -0.998,-0.045 -1.471,-0.045 -0.174,0 -0.297,0.031 -0.297,0.137 l 0.175,0.075 c 0.14,0 0.264,0 0.524,0.047 0.578,0.09 0.63,0.683 0.7,1.262 l 1.261,9.916 c 0.034,0.168 0.086,0.274 0.192,0.274 0.104,0 0.174,-0.062 0.261,-0.228 l 5.353,-9.567 5.142,9.552 c 0.069,0.137 0.139,0.243 0.263,0.243 0.123,0 0.174,-0.123 0.21,-0.411 L 0,0 z"
               style="fill:#000000;fill-opacity:1;fill-rule:nonzero;stroke:none"
               id="path3063" />
          </g>
          <g
             style="fill:#000000"
             id="g3065"
             transform="translate(90.5532,535.3486)">
            <path
               inkscape:connector-curvature="0"
               d="m 0,0 c 0,-2.736 1.995,-5.975 6.787,-5.975 4.216,0 6.978,2.812 6.978,6.22 0,3.542 -2.937,5.702 -6.874,5.702 C 2.065,5.947 0,2.463 0,0 m 1.662,0.426 c 0,3.332 2.187,5.004 5.107,5.004 2.765,0 5.317,-1.963 5.317,-5.612 0,-4.426 -3.252,-5.217 -4.827,-5.217 -3.149,0 -5.597,2.283 -5.597,5.825"
               style="fill:#000000;fill-opacity:1;fill-rule:nonzero;stroke:none"
               id="path3067" />
          </g>
          <g
             style="fill:#000000"
             id="g3069"
             transform="translate(106.9263,531.6523)">
            <path
               inkscape:connector-curvature="0"
               d="m 0,0 c 0.035,-1.248 0.21,-1.641 0.683,-1.764 0.332,-0.074 0.716,-0.091 0.874,-0.091 l 0.14,-0.091 c 0,-0.091 -0.105,-0.121 -0.314,-0.121 -0.997,0 -1.698,0.045 -1.855,0.045 -0.157,0 -0.891,-0.045 -1.679,-0.045 -0.174,0 -0.279,0.014 -0.279,0.121 l 0.139,0.091 c 0.14,0 0.456,0.017 0.718,0.091 0.437,0.107 0.523,0.549 0.523,1.931 l 0.018,8.716 c 0,0.593 0.053,0.761 0.194,0.761 0.139,0 0.436,-0.336 0.612,-0.487 C 0.035,8.898 2.642,6.449 5.336,3.941 7.067,2.329 8.973,0.471 9.533,-0.029 L 9.341,7.697 C 9.323,8.685 9.2,9.02 8.657,9.142 8.344,9.202 7.941,9.218 7.802,9.218 c -0.122,0 -0.14,0.046 -0.14,0.105 0,0.093 0.14,0.107 0.349,0.107 0.788,0 1.626,-0.045 1.821,-0.045 0.19,0 0.768,0.045 1.485,0.045 0.191,0 0.315,-0.014 0.315,-0.107 0,-0.059 -0.07,-0.105 -0.194,-0.105 -0.086,0 -0.209,0 -0.418,-0.047 C 10.443,9.066 10.374,8.731 10.374,7.82 l -0.037,-8.915 c 0,-1.003 -0.035,-1.081 -0.158,-1.081 -0.139,0 -0.347,0.169 -1.275,0.975 C 8.711,-1.05 6.192,1.186 4.339,2.922 2.309,4.822 0.333,6.737 -0.226,7.286 L 0,0 z"
               style="fill:#000000;fill-opacity:1;fill-rule:nonzero;stroke:none"
               id="path3071" />
          </g>
          <g
             style="fill:#000000"
             id="g3073"
             transform="translate(126.6914,529.3716)">
            <path
               inkscape:connector-curvature="0"
               d="M 0,0 C 2.589,0 3.97,1.293 4.373,1.641 6.296,0.319 6.716,0.213 8.009,0.213 l 1.715,0 c 0.157,0 0.298,0.047 0.298,0.106 0,0.092 -0.089,0.106 -0.245,0.106 -0.63,0 -1.523,0.305 -2.083,0.593 -0.488,0.246 -1.259,0.656 -2.413,1.507 0.77,0.821 1.731,2.359 1.731,3.59 0,0.15 -0.051,0.272 -0.313,0.305 C 5.718,6.509 5.019,6.523 4.599,6.523 4.46,6.523 4.32,6.494 4.32,6.42 4.32,6.342 4.425,6.311 4.529,6.311 4.791,6.311 5.159,6.265 5.386,6.068 5.65,5.84 5.718,5.552 5.718,5.324 5.718,4.396 5.317,3.377 4.826,2.798 c -0.56,0.41 -2.71,2.161 -3.304,2.723 -1.821,1.718 -2.764,2.707 -2.764,3.893 0,1.431 1.172,1.993 2.222,1.993 0.769,0 1.363,-0.321 1.749,-0.669 0.438,-0.396 0.542,-0.896 0.542,-1.293 0,-0.229 0.017,-0.289 0.104,-0.289 0.07,0 0.123,0.03 0.174,0.258 0.053,0.229 0.123,1.292 0.123,1.749 0,0.182 -0.017,0.275 -0.227,0.38 -0.473,0.229 -1.224,0.381 -2.117,0.381 -2.343,0 -3.759,-1.596 -3.759,-2.798 0,-0.686 0.209,-1.308 0.855,-2.1 C -2.938,6.327 -4.251,5.14 -4.251,3.362 -4.251,2.037 -3.061,0 0,0 m 0.611,0.807 c -1.958,0 -3.497,1.368 -3.497,3.268 0,1.219 0.664,2.04 1.574,2.557 C -0.823,6.007 0.296,4.927 0.752,4.502 1.206,4.075 2.938,2.631 3.918,1.932 3.323,1.4 2.239,0.807 0.611,0.807"
               style="fill:#000000;fill-opacity:1;fill-rule:nonzero;stroke:none"
               id="path3075" />
          </g>
          <g
             style="fill:#000000"
             id="g3077"
             transform="translate(76.1943,513.9702)">
            <path
               inkscape:connector-curvature="0"
               d="m 0,0 c -0.244,0.106 -0.261,0.167 -0.261,0.579 0,0.76 0.07,1.368 0.087,1.61 0.017,0.169 0.052,0.245 0.139,0.245 0.106,0 0.123,-0.047 0.123,-0.168 0,-0.136 0,-0.349 0.052,-0.563 0.263,-1.124 1.418,-1.551 2.589,-1.551 1.679,0 2.5,1.05 2.5,2.023 0,1.05 -0.507,1.657 -2.01,2.738 L 2.431,5.475 C 0.577,6.798 0.157,7.74 0.157,8.776 c 0,1.627 1.401,2.737 3.622,2.737 0.681,0 1.189,-0.06 1.626,-0.153 0.332,-0.061 0.471,-0.076 0.613,-0.076 0.139,0 0.174,-0.03 0.174,-0.105 0,-0.077 -0.07,-0.578 -0.07,-1.612 0,-0.244 -0.035,-0.35 -0.122,-0.35 -0.106,0 -0.124,0.076 -0.141,0.199 -0.018,0.182 -0.122,0.592 -0.227,0.758 -0.104,0.169 -0.578,0.808 -2.186,0.808 -1.207,0 -2.152,-0.655 -2.152,-1.765 0,-0.867 0.49,-1.384 2.134,-2.556 L 3.918,6.327 C 5.982,4.913 6.47,3.97 6.47,2.752 6.47,2.13 6.192,0.973 4.985,0.229 4.234,-0.228 3.289,-0.411 2.343,-0.411 1.522,-0.411 0.717,-0.304 0,0"
               style="fill:#000000;fill-opacity:1;fill-rule:nonzero;stroke:none"
               id="path3079" />
          </g>
          <g
             style="fill:#000000"
             id="g3081"
             transform="translate(85.3936,515.2021)">
            <path
               inkscape:connector-curvature="0"
               d="m 0,0 c -1.696,1.324 -2.116,3.057 -2.116,4.501 0,1.02 0.403,2.798 1.96,4.153 1.049,0.913 2.64,1.629 5.334,1.629 0.698,0 1.678,-0.046 2.536,-0.184 C 8.378,9.992 8.938,9.902 9.498,9.87 9.69,9.855 9.725,9.793 9.725,9.704 9.725,9.581 9.672,9.399 9.638,8.852 9.603,8.349 9.603,7.515 9.586,7.285 9.568,7.058 9.533,6.965 9.429,6.965 9.305,6.965 9.287,7.072 9.287,7.285 9.287,7.878 9.008,8.502 8.553,8.836 7.941,9.293 6.595,9.704 5.055,9.704 2.729,9.704 1.645,9.111 1.033,8.593 -0.244,7.528 -0.542,6.173 -0.542,4.624 c 0,-2.905 2.572,-5.566 6.314,-5.566 1.313,0 2.344,0.137 3.044,0.76 0.367,0.334 0.595,1.003 0.647,1.278 0.035,0.166 0.07,0.228 0.175,0.228 C 9.725,1.324 9.76,1.215 9.76,1.096 9.76,0.99 9.55,-0.334 9.376,-0.852 9.27,-1.139 9.235,-1.17 8.92,-1.292 8.222,-1.536 6.891,-1.643 5.772,-1.643 3.15,-1.643 1.381,-1.08 0,0"
               style="fill:#000000;fill-opacity:1;fill-rule:nonzero;stroke:none"
               id="path3083" />
          </g>
          <g
             style="fill:#000000"
             id="g3085"
             transform="translate(107.9043,518.1826)">
            <path
               inkscape:connector-curvature="0"
               d="m 0,0 c 0,-1.46 0,-2.66 0.087,-3.3 0.052,-0.441 0.157,-0.777 0.682,-0.835 0.245,-0.031 0.629,-0.061 0.788,-0.061 0.105,0 0.139,-0.046 0.139,-0.093 0,-0.076 -0.087,-0.122 -0.28,-0.122 -0.961,0 -2.063,0.046 -2.152,0.046 -0.086,0 -1.189,-0.046 -1.713,-0.046 -0.193,0 -0.28,0.031 -0.28,0.122 0,0.047 0.035,0.093 0.14,0.093 0.158,0 0.367,0.03 0.525,0.061 0.35,0.058 0.437,0.394 0.506,0.835 0.088,0.64 0.088,1.84 0.088,3.3 l 0,1.597 -0.105,0.093 -7.416,0 -0.104,-0.093 0,-1.597 c 0,-1.46 0,-2.66 0.087,-3.3 0.052,-0.441 0.157,-0.777 0.683,-0.835 0.245,-0.031 0.629,-0.061 0.787,-0.061 0.105,0 0.14,-0.046 0.14,-0.093 0,-0.076 -0.087,-0.122 -0.281,-0.122 -0.961,0 -2.063,0.046 -2.15,0.046 -0.089,0 -1.191,-0.046 -1.714,-0.046 -0.194,0 -0.28,0.031 -0.28,0.122 0,0.047 0.035,0.093 0.139,0.093 0.159,0 0.368,0.03 0.525,0.061 0.349,0.058 0.438,0.394 0.507,0.835 0.088,0.64 0.088,1.84 0.088,3.3 l 0,2.678 c 0,2.373 0,2.798 -0.036,3.284 -0.034,0.517 -0.174,0.761 -0.751,0.868 -0.14,0.029 -0.437,0.045 -0.595,0.045 l -0.139,0.092 c 0,0.091 0.087,0.12 0.279,0.12 0.786,0 1.888,-0.045 1.977,-0.045 0.087,0 1.189,0.045 1.714,0.045 0.192,0 0.279,-0.029 0.279,-0.12 L -7.976,6.875 C -8.098,6.875 -8.204,6.859 -8.413,6.83 -8.885,6.752 -9.025,6.494 -9.06,5.962 -9.095,5.476 -9.095,5.051 -9.095,2.678 l 0,-0.32 0.104,-0.093 7.416,0 0.105,0.093 0,0.32 c 0,2.373 0,2.798 -0.035,3.284 -0.035,0.517 -0.174,0.761 -0.752,0.868 -0.139,0.029 -0.437,0.045 -0.595,0.045 l -0.139,0.092 c 0,0.091 0.088,0.12 0.28,0.12 0.786,0 1.889,-0.045 1.975,-0.045 0.089,0 1.191,0.045 1.715,0.045 0.192,0 0.28,-0.029 0.28,-0.12 L 1.119,6.875 C 0.997,6.875 0.893,6.859 0.681,6.83 0.208,6.752 0.069,6.494 0.035,5.962 0,5.476 0,5.051 0,2.678 L 0,0 z"
               style="fill:#000000;fill-opacity:1;fill-rule:nonzero;stroke:none"
               id="path3087" />
          </g>
          <g
             style="fill:#000000"
             id="g3089"
             transform="translate(111.105,520.8604)">
            <path
               inkscape:connector-curvature="0"
               d="m 0,0 c 0,2.372 0,2.798 -0.035,3.286 -0.034,0.517 -0.175,0.759 -0.752,0.866 -0.141,0.03 -0.437,0.045 -0.594,0.045 l -0.141,0.092 c 0,0.091 0.086,0.122 0.28,0.122 0.787,0 1.854,-0.047 2.011,-0.047 0.159,0 1.207,0.047 1.731,0.047 0.193,0 0.281,-0.031 0.281,-0.122 L 2.642,4.197 C 2.518,4.197 2.414,4.182 2.203,4.152 1.731,4.091 1.591,3.818 1.557,3.286 1.522,2.798 1.522,2.372 1.522,0 l 0,-2.129 c 0,-2.19 0.56,-3.135 1.311,-3.757 0.856,-0.699 1.644,-0.837 2.641,-0.837 1.068,0 2.115,0.441 2.745,1.096 0.806,0.867 1.015,2.16 1.015,3.725 l 0,1.902 c 0,2.372 0,2.798 -0.035,3.286 C 9.165,3.803 9.025,4.045 8.447,4.152 8.308,4.182 8.01,4.197 7.853,4.197 l -0.14,0.092 c 0,0.091 0.087,0.122 0.28,0.122 0.786,0 1.748,-0.047 1.853,-0.047 0.124,0 0.945,0.047 1.469,0.047 0.193,0 0.28,-0.031 0.28,-0.122 l -0.14,-0.092 c -0.122,0 -0.226,0 -0.437,-0.045 C 10.547,4.077 10.406,3.818 10.371,3.286 10.336,2.798 10.336,2.372 10.336,0 l 0,-1.628 c 0,-1.641 -0.21,-3.467 -1.609,-4.548 C 7.468,-7.147 6.156,-7.299 5.125,-7.299 4.53,-7.299 2.763,-7.24 1.522,-6.221 0.664,-5.504 0,-4.441 0,-2.222 L 0,0 z"
               style="fill:#000000;fill-opacity:1;fill-rule:nonzero;stroke:none"
               id="path3091" />
          </g>
          <g
             style="fill:#000000"
             id="g3093"
             transform="translate(123.5049,513.9702)">
            <path
               inkscape:connector-curvature="0"
               d="m 0,0 c -0.244,0.106 -0.261,0.167 -0.261,0.579 0,0.76 0.07,1.368 0.087,1.61 0.017,0.169 0.052,0.245 0.139,0.245 0.104,0 0.123,-0.047 0.123,-0.168 0,-0.136 0,-0.349 0.052,-0.563 0.263,-1.124 1.417,-1.551 2.589,-1.551 1.679,0 2.5,1.05 2.5,2.023 0,1.05 -0.507,1.657 -2.011,2.738 L 2.43,5.475 C 0.577,6.798 0.158,7.74 0.158,8.776 c 0,1.627 1.399,2.737 3.62,2.737 0.682,0 1.19,-0.06 1.628,-0.153 0.331,-0.061 0.47,-0.076 0.612,-0.076 0.139,0 0.173,-0.03 0.173,-0.105 0,-0.077 -0.069,-0.578 -0.069,-1.612 C 6.122,9.323 6.087,9.217 6,9.217 5.894,9.217 5.876,9.293 5.859,9.416 5.842,9.598 5.737,10.008 5.632,10.174 5.527,10.343 5.055,10.982 3.445,10.982 2.24,10.982 1.294,10.327 1.294,9.217 1.294,8.35 1.784,7.833 3.428,6.661 L 3.918,6.327 C 5.982,4.913 6.471,3.97 6.471,2.752 6.471,2.13 6.191,0.973 4.985,0.229 4.232,-0.228 3.288,-0.411 2.344,-0.411 1.522,-0.411 0.717,-0.304 0,0"
               style="fill:#000000;fill-opacity:1;fill-rule:nonzero;stroke:none"
               id="path3095" />
          </g>
          <g
             style="fill:#000000"
             id="g3097"
             transform="translate(136.3071,518.1826)">
            <path
               inkscape:connector-curvature="0"
               d="m 0,0 c 0,-1.46 0,-2.66 0.087,-3.3 0.053,-0.441 0.158,-0.777 0.683,-0.835 0.245,-0.031 0.629,-0.061 0.788,-0.061 0.104,0 0.139,-0.046 0.139,-0.093 0,-0.076 -0.087,-0.122 -0.28,-0.122 -0.961,0 -2.063,0.046 -2.151,0.046 -0.087,0 -1.189,-0.046 -1.714,-0.046 -0.193,0 -0.28,0.031 -0.28,0.122 0,0.047 0.035,0.093 0.14,0.093 0.158,0 0.367,0.03 0.524,0.061 0.351,0.058 0.438,0.394 0.507,0.835 0.087,0.64 0.087,1.84 0.087,3.3 l 0,6.436 -2.587,-0.033 C -5.141,6.389 -5.562,6.282 -5.84,5.917 -6.034,5.659 -6.086,5.551 -6.139,5.446 -6.191,5.323 -6.243,5.292 -6.313,5.292 L -6.4,5.429 c 0,0.153 0.348,1.46 0.383,1.582 0.035,0.093 0.107,0.29 0.177,0.29 0.121,0 0.296,-0.153 0.768,-0.183 0.508,-0.047 1.172,-0.076 1.383,-0.076 l 6.558,0 c 1.119,0 1.591,0.152 1.731,0.152 0.087,0 0.087,-0.09 0.087,-0.183 C 4.687,6.554 4.635,5.508 4.635,5.339 4.635,5.203 4.583,5.141 4.513,5.141 4.425,5.141 4.39,5.188 4.374,5.4 L 4.356,5.566 C 4.286,6.023 3.884,6.373 2.204,6.403 L 0,6.436 0,0 z"
               style="fill:#000000;fill-opacity:1;fill-rule:nonzero;stroke:none"
               id="path3099" />
          </g>
          <g
             style="fill:#000000"
             id="g3101"
             transform="translate(143.395,520.8604)">
            <path
               inkscape:connector-curvature="0"
               d="M 0,0 C 0,2.372 0,2.798 -0.035,3.286 -0.07,3.803 -0.209,4.045 -0.786,4.152 -0.927,4.182 -1.224,4.197 -1.38,4.197 l -0.141,0.092 c 0,0.091 0.086,0.122 0.28,0.122 0.787,0 1.888,-0.047 1.975,-0.047 0.124,0 3.605,0 4.005,0.016 0.333,0.016 0.612,0.045 0.754,0.077 L 5.737,4.532 5.806,4.396 C 5.806,4.289 5.72,4.106 5.667,3.68 5.649,3.527 5.614,2.858 5.58,2.677 L 5.458,2.51 C 5.351,2.51 5.316,2.585 5.316,2.707 5.316,2.815 5.299,3.073 5.212,3.254 5.09,3.498 4.915,3.68 3.971,3.772 3.673,3.803 1.767,3.818 1.575,3.818 1.505,3.818 1.47,3.772 1.47,3.665 l 0,-4.198 c 0,-0.107 0.017,-0.152 0.105,-0.152 0.226,0 2.378,0 2.78,0.03 0.419,0.032 0.665,0.061 0.822,0.213 0.122,0.123 0.192,0.199 0.263,0.199 0.053,0 0.088,-0.031 0.088,-0.123 0,-0.091 -0.088,-0.35 -0.142,-0.85 -0.035,-0.305 -0.07,-0.868 -0.07,-0.974 0,-0.122 0,-0.29 -0.121,-0.29 l -0.123,0.138 c 0,0.152 0,0.304 -0.069,0.501 -0.07,0.213 -0.229,0.472 -0.91,0.533 -0.473,0.046 -2.204,0.075 -2.5,0.075 l -0.123,-0.105 0,-1.34 c 0,-0.515 -0.018,-2.28 0,-2.601 0.053,-1.048 0.314,-1.247 2.028,-1.247 0.455,0 1.224,0 1.679,0.168 0.455,0.167 0.664,0.472 0.788,1.094 0.035,0.169 0.07,0.23 0.158,0.23 0.104,0 0.104,-0.122 0.104,-0.23 0,-0.121 -0.14,-1.154 -0.227,-1.474 -0.124,-0.395 -0.263,-0.395 -0.946,-0.395 -2.641,0 -3.812,0.09 -4.32,0.09 -0.034,0 -0.331,-0.015 -0.699,-0.015 -0.35,-0.013 -0.751,-0.029 -1.014,-0.029 -0.192,0 -0.28,0.029 -0.28,0.122 0,0.045 0.035,0.09 0.14,0.09 0.157,0 0.368,0.031 0.524,0.062 0.351,0.06 0.438,0.395 0.509,0.835 C 0,-5.339 0,-4.138 0,-2.678 L 0,0 z"
               style="fill:#000000;fill-opacity:1;fill-rule:nonzero;stroke:none"
               id="path3103" />
          </g>
          <g
             style="fill:#000000"
             id="g3105"
             transform="translate(152.1411,518.1826)">
            <path
               inkscape:connector-curvature="0"
               d="m 0,0 c 0,-1.46 0,-2.661 -0.088,-3.3 -0.071,-0.441 -0.159,-0.776 -0.508,-0.835 -0.157,-0.034 -0.366,-0.062 -0.524,-0.062 -0.105,0 -0.141,-0.045 -0.141,-0.091 0,-0.093 0.087,-0.121 0.281,-0.121 0.525,0 1.627,0.044 1.645,0.044 0.087,0 1.188,-0.044 2.149,-0.044 0.194,0 0.281,0.044 0.281,0.121 0,0.046 -0.035,0.091 -0.14,0.091 -0.159,0 -0.541,0.028 -0.788,0.062 C 1.643,-4.076 1.538,-3.741 1.486,-3.3 1.398,-2.661 1.398,-1.46 1.398,0 l 0,0.366 0.123,0.122 2.151,-0.033 c 0.104,0 0.157,-0.029 0.227,-0.089 0.35,-0.395 1.171,-1.414 1.907,-2.251 0.998,-1.141 1.609,-1.887 2.361,-2.237 0.456,-0.212 0.891,-0.287 1.872,-0.287 l 1.24,0 c 0.316,0 0.421,0.028 0.421,0.121 l -0.157,0.091 c -0.105,0 -0.35,0 -0.682,0.046 -0.438,0.06 -1.189,0.228 -2.134,1.094 C 7.712,-2.115 6.523,-0.76 5.088,0.837 6.662,2.099 7.205,3.223 7.205,4.349 7.205,5.4 6.436,6.144 5.998,6.42 5.07,6.996 3.899,7.089 2.796,7.089 c -0.54,0 -1.87,-0.047 -2.062,-0.047 -0.087,0 -1.189,0.047 -1.978,0.047 -0.191,0 -0.278,-0.033 -0.278,-0.122 l 0.139,-0.092 c 0.158,0 0.455,-0.016 0.594,-0.045 C -0.211,6.722 -0.071,6.48 -0.037,5.963 0,5.475 0,5.05 0,2.678 L 0,0 z M 1.398,6.327 C 1.398,6.42 1.451,6.48 1.538,6.51 1.714,6.556 2.185,6.6 2.71,6.6 4.583,6.6 5.736,5.46 5.736,3.558 5.736,2.403 5.281,1.581 4.669,1.217 4.267,0.974 3.776,0.929 3.356,0.929 2.587,0.929 1.783,1.035 1.521,1.171 l -0.123,0.183 0,4.973 z"
               style="fill:#000000;fill-opacity:1;fill-rule:nonzero;stroke:none"
               id="path3107" />
          </g>
          <g
             style="fill:#000000"
             id="g3109"
             transform="translate(119.8237,577.4951)">
            <path
               inkscape:connector-curvature="0"
               d="m 0,0 c 0,0 0.071,-0.457 -0.427,-0.781 -0.497,-0.326 -2.589,-1.435 -1.525,0.519 1.065,1.956 1.986,2.184 1.986,2.184 0,0 0.533,0.619 1.349,0.065 0,0 0.462,-0.325 -0.638,-0.879 0,0 -0.711,0 -0.745,-1.108 M 1.526,3.128 C 2.662,3.585 2.768,3.65 2.909,3.65 3.052,3.65 3.479,3.747 4.187,3.356 4.895,2.964 4.683,2.704 3.938,2.933 3.193,3.161 2.448,3.063 3.37,2.411 4.293,1.76 3.548,1.467 3.123,1.987 2.697,2.509 1.633,2.541 1.633,2.541 c 0,0 -1.244,0.13 -0.107,0.587 m 6.741,-31.096 c -0.464,0.232 -1.935,0.47 -2.028,0.511 -0.62,0.26 -2.834,1.589 -2.834,1.589 -0.426,0.716 0.462,7.687 0.427,7.916 -0.035,0.228 0.851,2.606 0.851,2.606 0,0 0.533,1.564 -0.035,1.694 -0.568,0.132 -0.922,1.01 -1.028,1.075 -0.108,0.066 -0.356,1.075 -0.356,1.075 -0.923,0.36 -1.419,1.63 -1.419,1.63 0,0 -0.142,1.009 -0.532,1.139 -0.39,0.132 -0.213,0.295 -0.213,0.295 2.52,3.159 1.844,2.605 2.164,3.779 0.319,1.173 -1.419,1.824 -1.134,2.248 0.283,0.423 0.567,0.717 -0.25,1.727 -0.817,1.009 0.533,1.205 0.533,1.205 2.306,-1.14 3.512,0.359 4.045,0.62 0.532,0.26 1.668,2.475 0,3.388 -1.667,0.912 -2.412,2.639 -2.412,2.639 -0.567,2.705 -1.845,3.844 -1.845,3.844 -1.881,1.239 -2.377,0.815 -2.592,1.27 -0.211,0.457 2.413,2.673 2.413,2.673 1.846,-0.033 2.52,1.043 2.52,1.043 -1.312,2.572 -2.591,2.474 -2.591,2.474 -2.873,3.128 -3.761,2.412 -3.761,2.412 -0.426,0.034 -0.32,-0.846 -0.32,-0.846 0,0 -0.743,-0.065 -0.709,-0.522 0.035,-0.457 1.491,-1.173 1.491,-1.173 -2.414,0 -4.4,-1.205 -4.4,-1.205 -0.817,0.422 -1.064,0.259 -1.206,-0.457 -0.142,-0.717 0.389,-1.824 0.389,-1.824 l 1.811,-0.033 0.39,0.423 c 0,0.816 0.887,0.945 0.887,0.945 -0.035,0.716 0.957,0.751 0.957,0.751 0,0 1.03,-0.131 1.172,-0.327 0.143,-0.195 0.355,-0.553 0.922,-0.13 0.569,0.422 0.887,-0.131 0.887,-0.131 L 0.426,15.607 c 0,0 0.071,0.162 0.178,-0.39 C 0.711,14.66 0.071,14.76 0.071,14.76 L -0.282,14.465 -0.391,14.14 -0.94,14.092 c 0.32,-0.392 -0.018,-0.897 -0.018,-0.897 -0.728,-1.58 -1.846,-0.147 -2.058,0.295 -0.212,0.438 -0.55,0.503 -0.461,0.323 0.089,-0.177 0.337,-0.91 0.124,-2.116 -0.213,-1.207 -0.887,-0.132 -0.887,-0.132 0,0 -0.373,0.457 -0.656,1.566 -0.284,1.107 -0.746,0.569 -0.746,0.569 0,0 0.55,-1.823 1.065,-2.737 0.514,-0.91 1.332,-1.238 1.332,-1.238 0,0 0.158,-0.097 0.585,0.163 0.424,0.261 0.247,-0.129 0.247,-0.129 C -3.762,7.429 -5.553,7.754 -6.476,6.892 -7.399,6.028 -6.636,5.8 -6.263,5.8 c 0.373,0 1.509,0.766 1.828,0.943 0.319,0.18 0.531,0.295 0.177,-0.277 C -4.613,5.898 -5.802,5.409 -6.476,5.116 -7.149,4.822 -7.24,4.56 -7.185,4.317 -7.132,4.073 -7.452,3.421 -7.594,3.29 -7.737,3.161 -8.161,3.063 -8.161,3.063 -8.943,2.2 -7.983,2.247 -7.665,2.296 c 0.319,0.05 0.958,0.424 2.076,1.06 1.117,0.636 0.64,-0.131 0.249,-0.603 C -5.73,2.281 -7.061,1.467 -7.808,1.057 -8.551,0.651 -8.304,0.359 -8.304,0.359 c 1.58,0.081 3.869,1.857 5.607,3.812 1.739,1.955 2.023,5.44 2.023,5.44 0.054,0.163 -0.301,2.329 -0.301,2.329 l 0.23,0 c 0,0 1.047,-1.042 0.922,-5.067 C 0.054,2.85 -1.864,1.157 -2.643,0.44 -3.425,-0.277 -3.247,0.261 -3.247,0.261 -2.201,1.32 -1.313,3.371 -1.136,4.106 -0.958,4.839 -1.491,4.349 -1.491,4.349 -1.686,3.013 -5.162,0.066 -5.162,0.066 -5.66,-0.326 -5.518,0.115 -5.518,0.115 -3.779,2.231 -6.529,0.409 -6.529,0.409 -7.185,0.325 -7.098,0.033 -7.098,0.033 c 1.456,-1.891 6.496,-2.021 6.318,-2.281 -0.178,-0.262 -0.888,-0.423 -1.278,-0.423 -0.391,0 -1.064,-0.034 -1.81,0.553 -0.745,0.587 -0.709,0.13 -0.709,0.13 -0.107,-1.759 4.683,-2.706 4.896,-2.736 0.213,-0.034 0.32,-0.229 0.32,-0.229 0,0 0.141,-0.457 -1.101,-0.457 -1.241,0 -3.973,1.924 -4.896,2.9 -0.923,0.979 -0.853,0.294 -0.853,0.294 0.143,-0.782 3.089,-3.16 3.798,-3.844 0.71,-0.684 -0.213,-0.49 -0.603,-0.455 -0.39,0.03 -4.508,4.919 -4.897,5.179 -0.391,0.26 -0.815,0.717 -1.668,0.978 -0.853,0.261 -0.319,0.717 -0.319,0.717 -0.568,0.977 -0.709,1.888 -0.781,2.215 -0.071,0.326 0.247,1.271 0.247,1.271 -0.069,0.62 1.066,1.793 0.782,2.085 -0.284,0.293 -0.638,1.465 -0.638,1.465 0.248,2.738 -0.249,2.673 -0.249,2.478 0,-0.195 -0.78,-0.751 -0.78,-0.751 -0.072,-0.259 -1.74,-0.131 -1.74,-0.454 0,-0.326 0.286,-0.294 0.462,-0.652 0.177,-0.36 -0.993,-0.327 -0.993,-0.327 -1.49,-0.456 -0.32,-0.651 -0.39,-0.977 -0.071,-0.326 -0.888,-0.554 -1.491,-0.717 -0.604,-0.162 -2.094,0.065 -1.845,-0.423 0.247,-0.49 1.029,-0.391 1.063,-0.815 0.035,-0.423 -0.922,-0.228 -0.922,-0.228 -0.745,0.553 -1.135,0.587 -1.809,0.652 -0.674,0.065 -0.71,-0.424 -0.71,-0.424 0,0 0.603,-0.033 0.78,-0.098 0.177,-0.065 0.71,-0.194 0.604,-0.358 -0.106,-0.164 -0.106,-0.164 -0.355,-0.164 -0.249,0 -1.064,0.262 -1.348,0.262 -0.284,0 -0.782,-0.098 -0.995,-0.357 -0.211,-0.261 -0.034,-0.165 0.356,-0.295 0.39,-0.13 0.212,-0.326 0.212,-0.326 0,0 -1.17,-0.813 -1.277,-0.813 -0.107,0 -1.065,-0.979 -1.065,-1.01 0,-0.034 -0.249,-0.294 -0.249,-0.424 0,-0.132 -0.815,-0.979 -0.815,-0.979 -0.107,0.099 -1.917,-1.432 -1.917,-1.432 l -0.602,0.292 c 0,0 -0.604,0.165 -0.426,-0.586 0.178,-0.749 1.596,-1.921 1.596,-1.662 0,0.262 1.278,1.922 1.03,1.174 -0.248,-0.751 0.922,-1.303 0.744,-1.01 -0.177,0.293 0.25,0.749 0.25,0.749 0,0 0.638,0.357 0.708,1.043 0.071,0.684 0.569,1.432 0.853,2.249 0.284,0.814 5.18,2.181 6.351,2.541 1.171,0.357 2.59,1.074 2.768,1.008 0.177,-0.066 0.142,-0.162 0.142,-0.162 0,0 0,-1.109 -0.037,-1.433 -0.034,-0.328 0.728,-1.662 0.728,-1.662 0.321,-0.181 0.711,-0.783 0.711,-0.783 0,0 0.159,-0.504 0.178,-0.7 0.017,-0.195 0.123,-0.635 0.745,-0.863 0.62,-0.229 0.513,-0.522 0.513,-0.522 0.071,-0.424 -0.886,-0.424 -0.851,-0.977 0.035,-0.553 0.958,-1.139 0.958,-1.139 2.379,-1.174 1.349,-0.946 1.349,-0.946 -2.626,1.011 -2.272,0.554 -2.272,0.554 0.39,-0.913 2.166,-1.239 2.519,-1.369 0.356,-0.13 0.817,0 0.96,-0.684 0.141,-0.685 0.425,-1.042 0.886,-1.532 0.461,-0.489 1.1,-0.781 2.626,-1.498 1.525,-0.717 1.384,-1.174 1.81,-1.434 0.426,-0.261 0.674,-1.205 0.958,-2.769 0.284,-1.565 1.205,-1.922 1.313,-1.922 0.106,0 0.212,0.033 0.568,0.391 0.355,0.358 0.284,0.325 0.531,0.13 0.249,-0.195 -0.531,-1.401 -0.531,-1.401 -1.313,-1.011 -2.058,-2.998 -2.13,-3.225 -0.072,-0.23 0.249,-0.488 0.249,-0.488 0.355,-0.13 0.532,0.065 0.496,-0.196 -0.034,-0.261 -0.177,-0.425 -0.249,-0.457 -0.07,-0.033 -0.318,-0.129 -0.247,-0.716 0.07,-0.587 0.177,-0.587 0.284,-0.62 0.106,-0.032 0.353,-0.39 0.212,-0.359 -0.142,0.034 -0.673,-1.009 -0.673,-1.009 -0.675,-0.52 -0.675,-1.53 -0.675,-1.759 0,-0.228 0.107,-0.849 0.212,-1.207 0.108,-0.359 1.242,-0.65 1.136,-0.716 -0.106,-0.065 -0.391,-0.293 -0.391,-0.293 l -0.212,-1.629 9.496,0.011 0.091,0.179 c 0,0 0.036,0.335 -0.645,0.676 M -8.41,-9.301 c -0.071,0.031 -1.3,0.997 -1.544,1.189 -0.124,0.098 -0.869,1.27 -0.869,1.27 l -0.195,0.017 0,-0.637 c 0,0 0.355,-0.959 0.621,-1.204 0.264,-0.243 1.029,-1.239 0.939,-1.859 0,0 -0.123,-1.84 -1.383,-2.443 -1.26,-0.602 -1.49,-0.96 -3.478,-1.434 l 0.018,-0.373 c 0.053,0 0.816,-0.326 1.153,-0.244 0.336,0.081 0.408,-0.033 0.958,0.145 0.55,0.18 0.445,-0.13 0.445,-0.13 0,0 -1.259,-0.407 -1.581,-0.422 -0.318,-0.016 -2.111,-0.115 -1.863,-0.44 0.25,-0.327 0.533,-0.44 0.445,-0.57 -0.089,-0.131 -1.474,-0.586 -1.439,-0.881 0.037,-0.293 0.356,-0.081 0.32,-0.358 -0.035,-0.277 -2.36,-0.472 -2.43,-0.359 0,0 -0.159,-0.503 -0.017,-0.635 0.141,-0.13 -1.35,-0.619 -1.811,-1.237 -0.461,-0.62 -1.703,-1.401 -1.846,-1.63 -0.141,-0.228 -0.708,-0.522 -0.602,-1.532 0,0 -1.207,0.522 -1.987,-0.716 0,0 -0.249,-0.878 0.568,-1.433 0.815,-0.554 1.56,-2.673 2.234,-2.998 l 0.542,-0.391 3.223,0.003 0.104,0.161 c 0,0 -0.64,0.977 -0.994,1.108 -0.354,0.131 -1.313,0.424 -1.277,1.041 0.035,0.619 -0.248,0.456 0.212,1.141 0.462,0.684 4.152,5.929 6.708,6.745 2.554,0.814 1.561,1.53 1.951,1.17 0,0 4.827,4.692 4.756,4.954 0,0 1.952,0.259 1.65,0.325 -0.866,0.188 -3.531,2.657 -3.531,2.657"
               style="fill:#000000;fill-opacity:1;fill-rule:nonzero;stroke:none"
               id="path3111" />
          </g>
          <g
             style="fill:#000000"
             id="g3113"
             transform="translate(101.8003,548.8892)">
            <path
               inkscape:connector-curvature="0"
               d="M 0,0 C -0.091,0 -0.166,0.056 -0.166,0.124 -0.166,0.193 -0.091,0.25 0,0.25 0.093,0.25 0.167,0.193 0.167,0.124 0.167,0.056 0.093,0 0,0"
               style="fill:#000000;fill-opacity:1;fill-rule:nonzero;stroke:none"
               id="path3115" />
          </g>
        </g>
      </g>
      <g
         style="fill:#000000"
         id="g3117"
         transform="matrix(1.838098,0,0,-1.838098,342.12034,521.02487)">
        <path
           inkscape:connector-curvature="0"
           d="M 0,0 54.141,0 54.139,49.16 0,49.16 0,0 z m 54.881,-0.74 0,0.74 0,-0.74 z m -56.362,-0.74 0,52.121 57.103,0 0,-51.381 0,-0.74 -57.103,0 z"
           style="fill:#000000;fill-opacity:1;fill-rule:nonzero;stroke:none"
           id="path3119" />
      </g>
    </g>
  </g>
</svg>
